<?xml version="1.0" encoding="UTF-8" standalone="no"?>
<!DOCTYPE svg PUBLIC "-//W3C//DTD SVG 1.1//EN"
 "http://www.w3.org/Graphics/SVG/1.1/DTD/svg11.dtd">
<!-- Generated by graphviz version 14.1.1 (20251213.1925)
 -->
<!-- Title: InheritanceTree Pages: 1 -->
<svg width="585pt" height="789pt"
 viewBox="0.00 0.00 585.00 789.00" xmlns="http://www.w3.org/2000/svg" xmlns:xlink="http://www.w3.org/1999/xlink">
<g id="graph0" class="graph" transform="scale(1 1) rotate(0) translate(4 784.5)">
<title>InheritanceTree</title>
<polygon fill="white" stroke="none" points="-4,4 -4,-784.5 580.5,-784.5 580.5,4 -4,4"/>
<text xml:space="preserve" text-anchor="middle" x="288.25" y="-7.2" font-family="Times New Roman,serif" font-size="14.00">simple_http &#45; Inheritance Hierarchy</text>
<!-- SIMPLE_HTTP -->
<g id="node1" class="node">
<title>SIMPLE_HTTP</title>
<path fill="none" stroke="black" d="M173.12,-60.5C173.12,-60.5 91.88,-60.5 91.88,-60.5 85.88,-60.5 79.88,-54.5 79.88,-48.5 79.88,-48.5 79.88,-36.5 79.88,-36.5 79.88,-30.5 85.88,-24.5 91.88,-24.5 91.88,-24.5 173.12,-24.5 173.12,-24.5 179.12,-24.5 185.12,-30.5 185.12,-36.5 185.12,-36.5 185.12,-48.5 185.12,-48.5 185.12,-54.5 179.12,-60.5 173.12,-60.5"/>
<text xml:space="preserve" text-anchor="middle" x="132.5" y="-37.45" font-family="Times New Roman,serif" font-size="14.00">SIMPLE_HTTP</text>
</g>
<!-- SIMPLE_HTTP_CLIENT_CACHE -->
<g id="node2" class="node">
<title>SIMPLE_HTTP_CLIENT_CACHE</title>
<path fill="none" stroke="black" d="M226.75,-132.5C226.75,-132.5 38.25,-132.5 38.25,-132.5 32.25,-132.5 26.25,-126.5 26.25,-120.5 26.25,-120.5 26.25,-108.5 26.25,-108.5 26.25,-102.5 32.25,-96.5 38.25,-96.5 38.25,-96.5 226.75,-96.5 226.75,-96.5 232.75,-96.5 238.75,-102.5 238.75,-108.5 238.75,-108.5 238.75,-120.5 238.75,-120.5 238.75,-126.5 232.75,-132.5 226.75,-132.5"/>
<text xml:space="preserve" text-anchor="middle" x="132.5" y="-109.45" font-family="Times New Roman,serif" font-size="14.00">SIMPLE_HTTP_CLIENT_CACHE</text>
</g>
<!-- SIMPLE_HTTP_COOKIE_JAR -->
<g id="node3" class="node">
<title>SIMPLE_HTTP_COOKIE_JAR</title>
<path fill="none" stroke="black" d="M217.38,-204.5C217.38,-204.5 47.62,-204.5 47.62,-204.5 41.62,-204.5 35.62,-198.5 35.62,-192.5 35.62,-192.5 35.62,-180.5 35.62,-180.5 35.62,-174.5 41.62,-168.5 47.62,-168.5 47.62,-168.5 217.38,-168.5 217.38,-168.5 223.38,-168.5 229.38,-174.5 229.38,-180.5 229.38,-180.5 229.38,-192.5 229.38,-192.5 229.38,-198.5 223.38,-204.5 217.38,-204.5"/>
<text xml:space="preserve" text-anchor="middle" x="132.5" y="-181.45" font-family="Times New Roman,serif" font-size="14.00">SIMPLE_HTTP_COOKIE_JAR</text>
</g>
<!-- SIMPLE_HTTP_INTERCEPTOR -->
<g id="node4" class="node">
<title>SIMPLE_HTTP_INTERCEPTOR</title>
<path fill="none" stroke="black" d="M564.5,-276.5C564.5,-276.5 385,-276.5 385,-276.5 379,-276.5 373,-270.5 373,-264.5 373,-264.5 373,-252.5 373,-252.5 373,-246.5 379,-240.5 385,-240.5 385,-240.5 564.5,-240.5 564.5,-240.5 570.5,-240.5 576.5,-246.5 576.5,-252.5 576.5,-252.5 576.5,-264.5 576.5,-264.5 576.5,-270.5 570.5,-276.5 564.5,-276.5"/>
<text xml:space="preserve" text-anchor="middle" x="474.75" y="-253.45" font-family="Times New Roman,serif" font-size="14.00">SIMPLE_HTTP_INTERCEPTOR</text>
</g>
<!-- SIMPLE_HTTP_LOGGER_INTERCEPTOR -->
<g id="node5" class="node">
<title>SIMPLE_HTTP_LOGGER_INTERCEPTOR</title>
<path fill="none" stroke="black" d="M253,-276.5C253,-276.5 12,-276.5 12,-276.5 6,-276.5 0,-270.5 0,-264.5 0,-264.5 0,-252.5 0,-252.5 0,-246.5 6,-240.5 12,-240.5 12,-240.5 253,-240.5 253,-240.5 259,-240.5 265,-246.5 265,-252.5 265,-252.5 265,-264.5 265,-264.5 265,-270.5 259,-276.5 253,-276.5"/>
<text xml:space="preserve" text-anchor="middle" x="132.5" y="-253.45" font-family="Times New Roman,serif" font-size="14.00">SIMPLE_HTTP_LOGGER_INTERCEPTOR</text>
</g>
<!-- SIMPLE_HTTP_LOGGER_INTERCEPTOR&#45;&gt;SIMPLE_HTTP_INTERCEPTOR -->
<g id="edge1" class="edge">
<title>SIMPLE_HTTP_LOGGER_INTERCEPTOR&#45;&gt;SIMPLE_HTTP_INTERCEPTOR</title>
<path fill="none" stroke="black" d="M265.31,-258.5C265.31,-258.5 361.01,-258.5 361.01,-258.5"/>
<polygon fill="none" stroke="black" points="361.01,-262 371.01,-258.5 361.01,-255 361.01,-262"/>
</g>
<!-- SIMPLE_HTTP_QUICK -->
<g id="node6" class="node">
<title>SIMPLE_HTTP_QUICK</title>
<path fill="none" stroke="black" d="M197.88,-348.5C197.88,-348.5 67.12,-348.5 67.12,-348.5 61.12,-348.5 55.12,-342.5 55.12,-336.5 55.12,-336.5 55.12,-324.5 55.12,-324.5 55.12,-318.5 61.12,-312.5 67.12,-312.5 67.12,-312.5 197.88,-312.5 197.88,-312.5 203.88,-312.5 209.88,-318.5 209.88,-324.5 209.88,-324.5 209.88,-336.5 209.88,-336.5 209.88,-342.5 203.88,-348.5 197.88,-348.5"/>
<text xml:space="preserve" text-anchor="middle" x="132.5" y="-325.45" font-family="Times New Roman,serif" font-size="14.00">SIMPLE_HTTP_QUICK</text>
</g>
<!-- SIMPLE_HTTP_REQUEST_BUILDER -->
<g id="node7" class="node">
<title>SIMPLE_HTTP_REQUEST_BUILDER</title>
<path fill="none" stroke="black" d="M239.5,-420.5C239.5,-420.5 25.5,-420.5 25.5,-420.5 19.5,-420.5 13.5,-414.5 13.5,-408.5 13.5,-408.5 13.5,-396.5 13.5,-396.5 13.5,-390.5 19.5,-384.5 25.5,-384.5 25.5,-384.5 239.5,-384.5 239.5,-384.5 245.5,-384.5 251.5,-390.5 251.5,-396.5 251.5,-396.5 251.5,-408.5 251.5,-408.5 251.5,-414.5 245.5,-420.5 239.5,-420.5"/>
<text xml:space="preserve" text-anchor="middle" x="132.5" y="-397.45" font-family="Times New Roman,serif" font-size="14.00">SIMPLE_HTTP_REQUEST_BUILDER</text>
</g>
<!-- SIMPLE_HTTP_RESPONSE -->
<g id="node8" class="node">
<title>SIMPLE_HTTP_RESPONSE</title>
<path fill="none" stroke="black" d="M210.25,-492.5C210.25,-492.5 54.75,-492.5 54.75,-492.5 48.75,-492.5 42.75,-486.5 42.75,-480.5 42.75,-480.5 42.75,-468.5 42.75,-468.5 42.75,-462.5 48.75,-456.5 54.75,-456.5 54.75,-456.5 210.25,-456.5 210.25,-456.5 216.25,-456.5 222.25,-462.5 222.25,-468.5 222.25,-468.5 222.25,-480.5 222.25,-480.5 222.25,-486.5 216.25,-492.5 210.25,-492.5"/>
<text xml:space="preserve" text-anchor="middle" x="132.5" y="-469.45" font-family="Times New Roman,serif" font-size="14.00">SIMPLE_HTTP_RESPONSE</text>
</g>
<!-- SIMPLE_HTTP_RETRY_POLICY -->
<g id="node9" class="node">
<title>SIMPLE_HTTP_RETRY_POLICY</title>
<path fill="none" stroke="black" d="M226,-564.5C226,-564.5 39,-564.5 39,-564.5 33,-564.5 27,-558.5 27,-552.5 27,-552.5 27,-540.5 27,-540.5 27,-534.5 33,-528.5 39,-528.5 39,-528.5 226,-528.5 226,-528.5 232,-528.5 238,-534.5 238,-540.5 238,-540.5 238,-552.5 238,-552.5 238,-558.5 232,-564.5 226,-564.5"/>
<text xml:space="preserve" text-anchor="middle" x="132.5" y="-541.45" font-family="Times New Roman,serif" font-size="14.00">SIMPLE_HTTP_RETRY_POLICY</text>
</g>
<!-- HTTP_TEST_APP -->
<g id="node10" class="node">
<title>HTTP_TEST_APP</title>
<path fill="none" stroke="black" d="M180.62,-708.5C180.62,-708.5 84.38,-708.5 84.38,-708.5 78.38,-708.5 72.38,-702.5 72.38,-696.5 72.38,-696.5 72.38,-684.5 72.38,-684.5 72.38,-678.5 78.38,-672.5 84.38,-672.5 84.38,-672.5 180.62,-672.5 180.62,-672.5 186.62,-672.5 192.62,-678.5 192.62,-684.5 192.62,-684.5 192.62,-696.5 192.62,-696.5 192.62,-702.5 186.62,-708.5 180.62,-708.5"/>
<text xml:space="preserve" text-anchor="middle" x="132.5" y="-685.45" font-family="Times New Roman,serif" font-size="14.00">HTTP_TEST_APP</text>
</g>
<!-- TEST_SET_BASE -->
<g id="node11" class="node">
<title>TEST_SET_BASE</title>
<path fill="none" stroke="black" d="M522.88,-672.5C522.88,-672.5 426.62,-672.5 426.62,-672.5 420.62,-672.5 414.62,-666.5 414.62,-660.5 414.62,-660.5 414.62,-648.5 414.62,-648.5 414.62,-642.5 420.62,-636.5 426.62,-636.5 426.62,-636.5 522.88,-636.5 522.88,-636.5 528.88,-636.5 534.88,-642.5 534.88,-648.5 534.88,-648.5 534.88,-660.5 534.88,-660.5 534.88,-666.5 528.88,-672.5 522.88,-672.5"/>
<text xml:space="preserve" text-anchor="middle" x="474.75" y="-649.45" font-family="Times New Roman,serif" font-size="14.00">TEST_SET_BASE</text>
</g>
<!-- HTTP_TEST_APP&#45;&gt;TEST_SET_BASE -->
<g id="edge2" class="edge">
<title>HTTP_TEST_APP&#45;&gt;TEST_SET_BASE</title>
<path fill="none" stroke="black" d="M183.5,-672.01C183.5,-665.84 183.5,-660.5 183.5,-660.5 183.5,-660.5 402.89,-660.5 402.89,-660.5"/>
<polygon fill="none" stroke="black" points="402.89,-664 412.89,-660.5 402.89,-657 402.89,-664"/>
</g>
<!-- LIB_TESTS -->
<g id="node12" class="node">
<title>LIB_TESTS</title>
<path fill="none" stroke="black" d="M162.62,-636.5C162.62,-636.5 102.38,-636.5 102.38,-636.5 96.38,-636.5 90.38,-630.5 90.38,-624.5 90.38,-624.5 90.38,-612.5 90.38,-612.5 90.38,-606.5 96.38,-600.5 102.38,-600.5 102.38,-600.5 162.62,-600.5 162.62,-600.5 168.62,-600.5 174.62,-606.5 174.62,-612.5 174.62,-612.5 174.62,-624.5 174.62,-624.5 174.62,-630.5 168.62,-636.5 162.62,-636.5"/>
<text xml:space="preserve" text-anchor="middle" x="132.5" y="-613.45" font-family="Times New Roman,serif" font-size="14.00">LIB_TESTS</text>
</g>
<!-- LIB_TESTS&#45;&gt;TEST_SET_BASE -->
<g id="edge3" class="edge">
<title>LIB_TESTS&#45;&gt;TEST_SET_BASE</title>
<path fill="none" stroke="black" d="M132.5,-636.99C132.5,-643.16 132.5,-648.5 132.5,-648.5 132.5,-648.5 402.84,-648.5 402.84,-648.5"/>
<polygon fill="none" stroke="black" points="402.84,-652 412.84,-648.5 402.84,-645 402.84,-652"/>
</g>
<!-- TEST_APP -->
<g id="node13" class="node">
<title>TEST_APP</title>
<path fill="none" stroke="black" d="M160.38,-780.5C160.38,-780.5 104.62,-780.5 104.62,-780.5 98.62,-780.5 92.62,-774.5 92.62,-768.5 92.62,-768.5 92.62,-756.5 92.62,-756.5 92.62,-750.5 98.62,-744.5 104.62,-744.5 104.62,-744.5 160.38,-744.5 160.38,-744.5 166.38,-744.5 172.38,-750.5 172.38,-756.5 172.38,-756.5 172.38,-768.5 172.38,-768.5 172.38,-774.5 166.38,-780.5 160.38,-780.5"/>
<text xml:space="preserve" text-anchor="middle" x="132.5" y="-757.45" font-family="Times New Roman,serif" font-size="14.00">TEST_APP</text>
</g>
</g>
</svg>
