<?xml version="1.0" encoding="UTF-8" standalone="no"?>
<!DOCTYPE svg PUBLIC "-//W3C//DTD SVG 1.1//EN"
 "http://www.w3.org/Graphics/SVG/1.1/DTD/svg11.dtd">
<!-- Generated by graphviz version 14.1.1 (20251213.1925)
 -->
<!-- Title: Dependencies Pages: 1 -->
<svg width="342pt" height="789pt"
 viewBox="0.00 0.00 342.00 789.00" xmlns="http://www.w3.org/2000/svg" xmlns:xlink="http://www.w3.org/1999/xlink">
<g id="graph0" class="graph" transform="scale(1 1) rotate(0) translate(4 784.5)">
<title>Dependencies</title>
<polygon fill="white" stroke="none" points="-4,4 -4,-784.5 337.5,-784.5 337.5,4 -4,4"/>
<text xml:space="preserve" text-anchor="middle" x="166.75" y="-7.2" font-family="Times New Roman,serif" font-size="14.00">simple_http &#45; Dependencies</text>
<!-- simple_http -->
<g id="node1" class="node">
<title>simple_http</title>
<polygon fill="lightblue" stroke="black" points="80.5,-420.5 0,-420.5 0,-384.5 80.5,-384.5 80.5,-420.5"/>
<text xml:space="preserve" text-anchor="middle" x="40.25" y="-397.45" font-family="Times New Roman,serif" font-size="14.00">simple_http</text>
</g>
<!-- simple_json -->
<g id="node2" class="node">
<title>simple_json</title>
<polygon fill="lightblue" stroke="black" points="320,-780.5 238,-780.5 238,-744.5 320,-744.5 320,-780.5"/>
<text xml:space="preserve" text-anchor="middle" x="279" y="-757.45" font-family="Times New Roman,serif" font-size="14.00">simple_json</text>
</g>
<!-- simple_http&#45;&gt;simple_json -->
<g id="edge1" class="edge">
<title>simple_http&#45;&gt;simple_json</title>
<path fill="none" stroke="black" stroke-dasharray="5,2" d="M13.5,-420.85C13.5,-494.21 13.5,-762.5 13.5,-762.5 13.5,-762.5 226,-762.5 226,-762.5"/>
<polygon fill="black" stroke="black" points="226,-766 236,-762.5 226,-759 226,-766"/>
</g>
<!-- simple_base64 -->
<g id="node3" class="node">
<title>simple_base64</title>
<polygon fill="lightblue" stroke="black" points="327.5,-708.5 230.5,-708.5 230.5,-672.5 327.5,-672.5 327.5,-708.5"/>
<text xml:space="preserve" text-anchor="middle" x="279" y="-685.45" font-family="Times New Roman,serif" font-size="14.00">simple_base64</text>
</g>
<!-- simple_http&#45;&gt;simple_base64 -->
<g id="edge2" class="edge">
<title>simple_http&#45;&gt;simple_base64</title>
<path fill="none" stroke="black" stroke-dasharray="5,2" d="M26.5,-420.95C26.5,-484.52 26.5,-690.5 26.5,-690.5 26.5,-690.5 218.5,-690.5 218.5,-690.5"/>
<polygon fill="black" stroke="black" points="218.5,-694 228.5,-690.5 218.5,-687 218.5,-694"/>
</g>
<!-- simple_logger -->
<g id="node4" class="node">
<title>simple_logger</title>
<polygon fill="lightblue" stroke="black" points="326,-636.5 232,-636.5 232,-600.5 326,-600.5 326,-636.5"/>
<text xml:space="preserve" text-anchor="middle" x="279" y="-613.45" font-family="Times New Roman,serif" font-size="14.00">simple_logger</text>
</g>
<!-- simple_http&#45;&gt;simple_logger -->
<g id="edge3" class="edge">
<title>simple_http&#45;&gt;simple_logger</title>
<path fill="none" stroke="black" stroke-dasharray="5,2" d="M40.5,-420.92C40.5,-473.15 40.5,-618.5 40.5,-618.5 40.5,-618.5 220.08,-618.5 220.08,-618.5"/>
<polygon fill="black" stroke="black" points="220.08,-622 230.08,-618.5 220.08,-615 220.08,-622"/>
</g>
<!-- simple_zstring -->
<g id="node5" class="node">
<title>simple_zstring</title>
<polygon fill="lightblue" stroke="black" points="327.12,-564.5 230.88,-564.5 230.88,-528.5 327.12,-528.5 327.12,-564.5"/>
<text xml:space="preserve" text-anchor="middle" x="279" y="-541.45" font-family="Times New Roman,serif" font-size="14.00">simple_zstring</text>
</g>
<!-- simple_http&#45;&gt;simple_zstring -->
<g id="edge4" class="edge">
<title>simple_http&#45;&gt;simple_zstring</title>
<path fill="none" stroke="black" stroke-dasharray="5,2" d="M53.5,-420.74C53.5,-459.49 53.5,-546.5 53.5,-546.5 53.5,-546.5 219.11,-546.5 219.11,-546.5"/>
<polygon fill="black" stroke="black" points="219.11,-550 229.11,-546.5 219.11,-543 219.11,-550"/>
</g>
<!-- simple_encoding -->
<g id="node6" class="node">
<title>simple_encoding</title>
<polygon fill="lightblue" stroke="black" points="333.5,-492.5 224.5,-492.5 224.5,-456.5 333.5,-456.5 333.5,-492.5"/>
<text xml:space="preserve" text-anchor="middle" x="279" y="-469.45" font-family="Times New Roman,serif" font-size="14.00">simple_encoding</text>
</g>
<!-- simple_http&#45;&gt;simple_encoding -->
<g id="edge5" class="edge">
<title>simple_http&#45;&gt;simple_encoding</title>
<path fill="none" stroke="black" stroke-dasharray="5,2" d="M67.5,-420.67C67.5,-442 67.5,-474.5 67.5,-474.5 67.5,-474.5 212.74,-474.5 212.74,-474.5"/>
<polygon fill="black" stroke="black" points="212.74,-478 222.74,-474.5 212.74,-471 212.74,-478"/>
</g>
<!-- simple_factory -->
<g id="node7" class="node">
<title>simple_factory</title>
<polygon fill="lightblue" stroke="black" points="327.88,-420.5 230.12,-420.5 230.12,-384.5 327.88,-384.5 327.88,-420.5"/>
<text xml:space="preserve" text-anchor="middle" x="279" y="-397.45" font-family="Times New Roman,serif" font-size="14.00">simple_factory</text>
</g>
<!-- simple_http&#45;&gt;simple_factory -->
<g id="edge6" class="edge">
<title>simple_http&#45;&gt;simple_factory</title>
<path fill="none" stroke="black" stroke-dasharray="5,2" d="M80.75,-402.5C80.75,-402.5 218.52,-402.5 218.52,-402.5"/>
<polygon fill="black" stroke="black" points="218.52,-406 228.52,-402.5 218.52,-399 218.52,-406"/>
</g>
<!-- simple_mml -->
<g id="node8" class="node">
<title>simple_mml</title>
<polygon fill="lightblue" stroke="black" points="321.88,-348.5 236.12,-348.5 236.12,-312.5 321.88,-312.5 321.88,-348.5"/>
<text xml:space="preserve" text-anchor="middle" x="279" y="-325.45" font-family="Times New Roman,serif" font-size="14.00">simple_mml</text>
</g>
<!-- simple_http&#45;&gt;simple_mml -->
<g id="edge7" class="edge">
<title>simple_http&#45;&gt;simple_mml</title>
<path fill="none" stroke="black" stroke-dasharray="5,2" d="M67.5,-384.33C67.5,-363 67.5,-330.5 67.5,-330.5 67.5,-330.5 224.18,-330.5 224.18,-330.5"/>
<polygon fill="black" stroke="black" points="224.18,-334 234.18,-330.5 224.18,-327 224.18,-334"/>
</g>
<!-- simple_testing -->
<g id="node9" class="node">
<title>simple_testing</title>
<polygon fill="lightblue" stroke="black" points="326.75,-276.5 231.25,-276.5 231.25,-240.5 326.75,-240.5 326.75,-276.5"/>
<text xml:space="preserve" text-anchor="middle" x="279" y="-253.45" font-family="Times New Roman,serif" font-size="14.00">simple_testing</text>
</g>
<!-- simple_http&#45;&gt;simple_testing -->
<g id="edge8" class="edge">
<title>simple_http&#45;&gt;simple_testing</title>
<path fill="none" stroke="black" stroke-dasharray="5,2" d="M53.5,-384.26C53.5,-345.51 53.5,-258.5 53.5,-258.5 53.5,-258.5 219.39,-258.5 219.39,-258.5"/>
<polygon fill="black" stroke="black" points="219.39,-262 229.39,-258.5 219.39,-255 219.39,-262"/>
</g>
<!-- base -->
<g id="node10" class="node">
<title>base</title>
<polygon fill="lightgray" stroke="black" points="306,-204.5 252,-204.5 252,-168.5 306,-168.5 306,-204.5"/>
<text xml:space="preserve" text-anchor="middle" x="279" y="-181.45" font-family="Times New Roman,serif" font-size="14.00">base</text>
</g>
<!-- simple_http&#45;&gt;base -->
<g id="edge9" class="edge">
<title>simple_http&#45;&gt;base</title>
<path fill="none" stroke="black" stroke-dasharray="5,2" d="M40.5,-384.08C40.5,-331.85 40.5,-186.5 40.5,-186.5 40.5,-186.5 240.13,-186.5 240.13,-186.5"/>
<polygon fill="black" stroke="black" points="240.13,-190 250.13,-186.5 240.13,-183 240.13,-190"/>
</g>
<!-- net_http_client -->
<g id="node11" class="node">
<title>net_http_client</title>
<polygon fill="lightgray" stroke="black" points="327.5,-132.5 230.5,-132.5 230.5,-96.5 327.5,-96.5 327.5,-132.5"/>
<text xml:space="preserve" text-anchor="middle" x="279" y="-109.45" font-family="Times New Roman,serif" font-size="14.00">net_http_client</text>
</g>
<!-- simple_http&#45;&gt;net_http_client -->
<g id="edge10" class="edge">
<title>simple_http&#45;&gt;net_http_client</title>
<path fill="none" stroke="black" stroke-dasharray="5,2" d="M26.5,-384.05C26.5,-320.48 26.5,-114.5 26.5,-114.5 26.5,-114.5 218.5,-114.5 218.5,-114.5"/>
<polygon fill="black" stroke="black" points="218.5,-118 228.5,-114.5 218.5,-111 218.5,-118"/>
</g>
<!-- testing -->
<g id="node12" class="node">
<title>testing</title>
<polygon fill="lightgray" stroke="black" points="306,-60.5 252,-60.5 252,-24.5 306,-24.5 306,-60.5"/>
<text xml:space="preserve" text-anchor="middle" x="279" y="-37.45" font-family="Times New Roman,serif" font-size="14.00">testing</text>
</g>
<!-- simple_http&#45;&gt;testing -->
<g id="edge11" class="edge">
<title>simple_http&#45;&gt;testing</title>
<path fill="none" stroke="black" stroke-dasharray="5,2" d="M13.5,-384.15C13.5,-310.79 13.5,-42.5 13.5,-42.5 13.5,-42.5 240.07,-42.5 240.07,-42.5"/>
<polygon fill="black" stroke="black" points="240.07,-46 250.07,-42.5 240.07,-39 240.07,-46"/>
</g>
</g>
</svg>
